<svg version="1.1" id="Layer_1" xmlns="http://www.w3.org/2000/svg" xmlns:xlink="http://www.w3.org/1999/xlink" x="0px" y="0px"
	 width="100%" viewBox="0 0 271 301" enable-background="new 0 0 271 301" xml:space="preserve">
<path fill="#F7F7F7" opacity="1.000000" stroke="none" 
	d="
M141.000000,302.000000 
	C94.000000,302.000000 47.500000,302.000000 1.000000,302.000000 
	C1.000000,201.666672 1.000000,101.333336 1.000000,1.000000 
	C91.333336,1.000000 181.666672,1.000000 272.000000,1.000000 
	C272.000000,101.333336 272.000000,201.666672 272.000000,302.000000 
	C228.500000,302.000000 185.000000,302.000000 141.000000,302.000000 
M107.936127,159.638229 
	C107.936127,172.561951 107.936127,185.485672 107.936127,198.708923 
	C127.337608,198.708923 146.870544,198.708923 166.976456,198.708923 
	C166.976456,186.206177 167.070389,173.939331 166.788910,161.681076 
	C166.767593,160.752258 164.086182,159.118256 162.629715,159.105209 
	C144.653412,158.944107 126.674973,159.023697 107.936127,159.638229 
M107.468246,117.098305 
	C107.468246,129.016602 107.468246,140.934906 107.468246,152.865845 
	C127.718521,152.865845 146.957962,152.865845 166.280685,152.865845 
	C166.280685,139.550385 166.280685,126.517570 166.280685,113.166481 
	C147.233566,113.166481 128.803909,113.122131 110.376312,113.295784 
	C109.442467,113.304588 108.526337,115.193039 107.468246,117.098305 
M61.989422,219.411316 
	C61.744621,226.051376 61.694756,232.706467 61.183769,239.325989 
	C60.864281,243.464706 62.177189,244.911987 66.407127,244.788483 
	C76.535446,244.492706 86.680855,244.410156 96.808495,244.668213 
	C100.274750,244.756516 101.118134,243.658249 101.105881,240.504059 
	C101.071053,231.533478 101.262459,222.562119 101.348091,213.590897 
	C101.376022,210.665054 101.352486,207.738693 101.352486,204.746399 
	C87.957809,204.746399 75.244026,204.746399 61.992493,204.746399 
	C61.992493,209.541534 61.992493,213.990814 61.989422,219.411316 
M213.721191,184.474258 
	C213.721191,176.084518 213.721191,167.694763 213.721191,159.459076 
	C199.883606,159.459076 187.184219,159.459076 174.233704,159.459076 
	C174.233704,172.782211 174.233704,185.682907 174.233704,198.807678 
	C187.192566,198.807678 199.932800,198.807678 213.734451,198.807678 
	C213.734451,194.284302 213.734451,189.868179 213.721191,184.474258 
M55.880589,179.498657 
	C55.880589,173.035065 55.880589,166.571472 55.880589,159.601791 
	C42.863110,159.601791 30.037188,159.601791 16.650387,159.601791 
	C16.650387,172.733368 16.650387,185.729355 16.650387,198.916840 
	C28.569977,198.916840 40.021343,198.877182 51.472111,198.942566 
	C54.641399,198.960648 55.968857,197.592377 55.898514,194.449219 
	C55.794476,189.800613 55.869606,185.147980 55.880589,179.498657 
M15.995646,141.474319 
	C15.995646,144.903091 15.995646,148.331863 15.995646,151.798462 
	C29.678061,151.798462 42.718792,151.798462 55.583359,151.798462 
	C55.583359,138.571564 55.583359,125.728325 55.583359,112.900719 
	C42.220558,112.900719 29.194107,112.900719 15.988103,112.900719 
	C15.988103,122.557999 15.988103,131.518997 15.995646,141.474319 
M64.842407,23.027428 
	C62.337452,22.728466 61.298656,23.654411 61.321205,26.352585 
	C61.410263,37.007664 61.380230,47.665623 61.215523,58.319748 
	C61.168537,61.359146 62.166313,62.338997 65.246651,62.302231 
	C75.401665,62.181019 85.560120,62.364567 95.717361,62.395435 
	C97.292175,62.400223 98.867561,62.218346 100.603508,62.113033 
	C100.603508,48.794235 100.603508,36.095467 100.603508,23.022707 
	C88.726501,23.022707 77.256508,23.022707 64.842407,23.027428 
M61.774075,178.499359 
	C61.774075,185.097107 61.774075,191.694870 61.774075,198.516174 
	C75.117760,198.516174 87.805580,198.516174 100.780319,198.516174 
	C100.780319,185.179062 100.780319,172.170258 100.780319,159.246490 
	C87.579048,159.246490 74.866859,159.246490 61.772915,159.246490 
	C61.772915,165.566025 61.772915,171.532745 61.774075,178.499359 
M18.611334,204.774384 
	C18.042507,206.065811 17.016565,207.344345 16.979650,208.650803 
	C16.754063,216.634750 16.741051,224.624969 16.681929,232.613281 
	C16.652847,236.542511 16.676886,240.472153 16.676886,244.596420 
	C29.311287,244.596420 41.253342,244.657562 53.191807,244.478638 
	C54.131615,244.464539 55.839378,242.791275 55.852882,241.869522 
	C56.032425,229.613785 55.972782,217.354553 55.972782,204.763474 
	C43.501640,204.763474 31.547655,204.763474 18.611334,204.774384 
M203.352234,244.874924 
	C206.004272,244.718292 208.690186,244.756927 211.291092,244.305634 
	C212.283630,244.133408 213.843216,242.848648 213.853821,242.053680 
	C214.017395,229.811996 213.967911,217.567474 213.967911,205.299103 
	C200.669159,205.299103 187.956863,205.299103 175.184113,205.299103 
	C175.184113,218.646896 175.184113,231.694962 175.184113,244.885422 
	C184.477051,244.885422 193.432083,244.885422 203.352234,244.874924 
M210.281860,23.137369 
	C198.346252,23.137369 186.410629,23.137369 174.189026,23.137369 
	C174.189026,36.355686 174.189026,49.225071 174.189026,62.077538 
	C187.278976,62.077538 200.007095,62.077538 213.998215,62.077538 
	C213.998215,50.162300 214.009338,38.566929 213.987045,26.971624 
	C213.983414,25.084019 214.633957,22.625280 210.281860,23.137369 
M251.290237,23.319983 
	C241.004105,23.319983 230.717972,23.319983 219.598419,23.319983 
	C219.598419,36.304985 219.598419,49.128613 219.598419,62.383163 
	C232.177597,62.383163 244.897171,62.383163 257.276978,62.383163 
	C257.276978,49.234184 257.276978,36.512310 257.276978,23.289034 
	C255.140656,23.289034 253.687027,23.289034 251.290237,23.319983 
M241.860321,244.477600 
	C247.445938,244.477600 253.031570,244.477600 258.800262,244.477600 
	C258.800262,230.895279 258.800262,218.043137 258.800262,205.277740 
	C245.762482,205.277740 233.069595,205.277740 220.241486,205.277740 
	C220.241486,218.505890 220.241486,231.357376 220.241486,244.449707 
	C227.434631,244.449707 234.221619,244.449707 241.860321,244.477600 
M173.905716,69.854874 
	C173.905716,82.303284 173.905716,94.751694 173.905716,107.369446 
	C187.279190,107.369446 200.009094,107.369446 212.575729,107.369446 
	C212.575729,94.166183 212.575729,81.427040 212.575729,68.741592 
	C206.934555,68.741592 201.805252,68.708252 196.676544,68.749504 
	C189.220520,68.809471 181.764938,68.923225 173.905716,69.854874 
M175.085083,276.490356 
	C175.092453,279.648346 175.263336,282.816772 175.062607,285.961487 
	C174.848984,289.308319 175.739532,290.641724 179.491425,290.408539 
	C186.281357,289.986450 193.111588,290.202881 199.925095,290.173553 
	C204.508270,290.153809 209.091614,290.169800 213.093765,290.169800 
	C213.093765,276.576538 213.093765,263.474304 213.093765,250.705139 
	C199.944992,250.705139 187.708252,250.705139 175.086578,250.705139 
	C175.086578,259.300293 175.086578,267.397156 175.085083,276.490356 
M20.572845,290.525146 
	C32.284988,290.525146 43.997131,290.525146 55.792961,290.525146 
	C55.792961,276.702026 55.792961,263.975403 55.792961,250.705872 
	C42.850601,250.705872 30.149855,250.705872 17.005211,250.705872 
	C17.005211,263.153900 16.962006,275.747192 17.115412,288.338104 
	C17.124363,289.072845 18.724434,289.788147 20.572845,290.525146 
M247.484024,152.341171 
	C250.877731,152.341171 254.271439,152.341171 258.006317,152.341171 
	C258.006317,138.705902 258.006317,125.854027 258.006317,113.123573 
	C244.900650,113.123573 232.183792,113.123573 219.021942,113.123573 
	C219.021942,125.568459 218.929138,137.652084 219.197144,149.727692 
	C219.218719,150.699524 221.702042,152.395172 223.074814,152.429810 
	C230.873184,152.626587 238.681732,152.420319 247.484024,152.341171 
M219.637329,172.235977 
	C219.637329,180.984863 219.637329,189.733749 219.637329,198.736420 
	C232.465134,198.736420 245.168198,198.736420 258.044220,198.736420 
	C258.044220,185.607849 258.044220,172.766968 258.044220,159.676010 
	C245.095932,159.676010 232.682922,159.676010 219.644775,159.676010 
	C219.644775,163.719452 219.644775,167.503448 219.637329,172.235977 
M258.464661,264.321228 
	C258.464661,259.594696 258.464661,254.868164 258.464661,250.274902 
	C245.157883,250.274902 232.630173,250.274902 220.041351,250.274902 
	C220.041351,263.659210 220.041351,276.702637 220.041351,289.900848 
	C232.812775,289.900848 245.167557,289.900848 258.480652,289.900848 
	C258.480652,281.448242 258.480652,273.357025 258.464661,264.321228 
M258.263184,80.507385 
	C258.263184,76.405640 258.263184,72.303894 258.263184,68.020950 
	C244.893555,68.020950 232.200836,68.020950 219.414948,68.020950 
	C219.414948,81.246658 219.414948,94.081589 219.414948,106.872559 
	C232.557037,106.872559 245.235657,106.872559 258.262390,106.872559 
	C258.262390,98.101105 258.262390,89.803764 258.263184,80.507385 
M70.535576,67.893578 
	C67.771835,67.893578 65.008102,67.893578 62.207756,67.893578 
	C62.207756,81.324722 62.207756,94.180389 62.207756,106.952774 
	C75.357185,106.952774 88.061569,106.952774 100.808151,106.952774 
	C100.808151,93.741806 100.808151,80.880379 100.808151,67.892647 
	C90.776695,67.892647 81.152962,67.892647 70.535576,67.893578 
M55.257099,68.061295 
	C42.533066,68.061295 29.809029,68.061295 17.078758,68.061295 
	C17.078758,81.250526 17.078758,94.107239 17.078758,106.924454 
	C30.211809,106.924454 42.902992,106.924454 55.927670,106.924454 
	C55.927670,93.936600 55.927670,81.346359 55.257099,68.061295 
M69.553070,290.055511 
	C79.664223,290.055511 89.775383,290.055511 100.345459,290.055511 
	C100.345459,276.776276 100.345459,263.752014 100.345459,250.840576 
	C87.638474,250.840576 74.958344,250.840576 61.725185,250.840576 
	C61.725185,257.816040 61.725185,264.266388 61.725185,270.716705 
	C61.725185,277.116302 61.725185,283.515900 61.725185,290.052246 
	C64.603134,290.052246 66.584938,290.052246 69.553070,290.055511 
M55.229870,32.698257 
	C55.226589,31.200895 54.913433,29.623184 55.277023,28.220951 
	C56.458073,23.666128 54.364902,22.942518 50.371109,23.084925 
	C43.393234,23.333731 36.397488,23.070454 29.409147,23.040590 
	C24.997747,23.021738 20.586203,23.037073 16.678728,23.037073 
	C16.678728,32.757240 16.729433,41.726608 16.666018,50.695164 
	C16.584949,62.160889 16.545012,62.199272 28.207499,62.281879 
	C37.121334,62.345020 46.035980,62.294434 55.230511,62.294434 
	C55.230511,52.251602 55.230511,42.950218 55.229870,32.698257 
M212.981003,138.507660 
	C212.981003,130.098602 212.981003,121.689552 212.981003,113.323158 
	C199.342560,113.323158 186.810852,113.323158 174.057922,113.323158 
	C174.057922,126.367203 174.057922,139.071121 174.057922,151.695740 
	C187.214172,151.695740 199.918900,151.695740 212.987122,151.695740 
	C212.987122,147.404968 212.987122,143.451523 212.981003,138.507660 
M100.982994,143.419418 
	C100.982994,133.343155 100.982994,123.266907 100.982994,113.145645 
	C87.292435,113.145645 74.772057,113.145645 61.741837,113.145645 
	C61.741837,125.419838 61.660385,137.347473 61.900116,149.268646 
	C61.918823,150.198746 64.160713,151.829239 65.408638,151.867966 
	C73.212296,152.110184 81.027122,151.992569 88.838257,151.993622 
	C92.754318,151.994156 96.670387,151.993729 100.982147,151.993729 
	C100.982147,148.981506 100.982147,146.688370 100.982994,143.419418 
z"/>
<path fill="#060606" opacity="1.000000" stroke="none" 
	d="
M108.316605,159.339722 
	C126.674973,159.023697 144.653412,158.944107 162.629715,159.105209 
	C164.086182,159.118256 166.767593,160.752258 166.788910,161.681076 
	C167.070389,173.939331 166.976456,186.206177 166.976456,198.708923 
	C146.870544,198.708923 127.337608,198.708923 107.936127,198.708923 
	C107.936127,185.485672 107.936127,172.561951 108.316605,159.339722 
z"/>
<path fill="#060606" opacity="1.000000" stroke="none" 
	d="
M107.535103,116.652313 
	C108.526337,115.193039 109.442467,113.304588 110.376312,113.295784 
	C128.803909,113.122131 147.233566,113.166481 166.280685,113.166481 
	C166.280685,126.517570 166.280685,139.550385 166.280685,152.865845 
	C146.957962,152.865845 127.718521,152.865845 107.468246,152.865845 
	C107.468246,140.934906 107.468246,129.016602 107.535103,116.652313 
z"/>
<path fill="#0A0A0A" opacity="1.000000" stroke="none" 
	d="
M61.990959,218.925705 
	C61.992493,213.990814 61.992493,209.541534 61.992493,204.746399 
	C75.244026,204.746399 87.957809,204.746399 101.352486,204.746399 
	C101.352486,207.738693 101.376022,210.665054 101.348091,213.590897 
	C101.262459,222.562119 101.071053,231.533478 101.105881,240.504059 
	C101.118134,243.658249 100.274750,244.756516 96.808495,244.668213 
	C86.680855,244.410156 76.535446,244.492706 66.407127,244.788483 
	C62.177189,244.911987 60.864281,243.464706 61.183769,239.325989 
	C61.694756,232.706467 61.744621,226.051376 61.990959,218.925705 
z"/>
<path fill="#080808" opacity="1.000000" stroke="none" 
	d="
M213.727814,184.963165 
	C213.734451,189.868179 213.734451,194.284302 213.734451,198.807678 
	C199.932800,198.807678 187.192566,198.807678 174.233704,198.807678 
	C174.233704,185.682907 174.233704,172.782211 174.233704,159.459076 
	C187.184219,159.459076 199.883606,159.459076 213.721191,159.459076 
	C213.721191,167.694763 213.721191,176.084518 213.727814,184.963165 
z"/>
<path fill="#090909" opacity="1.000000" stroke="none" 
	d="
M55.874519,179.997864 
	C55.869606,185.147980 55.794476,189.800613 55.898514,194.449219 
	C55.968857,197.592377 54.641399,198.960648 51.472111,198.942566 
	C40.021343,198.877182 28.569977,198.916840 16.650387,198.916840 
	C16.650387,185.729355 16.650387,172.733368 16.650387,159.601791 
	C30.037188,159.601791 42.863110,159.601791 55.880589,159.601791 
	C55.880589,166.571472 55.880589,173.035065 55.874519,179.997864 
z"/>
<path fill="#070707" opacity="1.000000" stroke="none" 
	d="
M15.991875,140.977158 
	C15.988103,131.518997 15.988103,122.557999 15.988103,112.900719 
	C29.194107,112.900719 42.220558,112.900719 55.583359,112.900719 
	C55.583359,125.728325 55.583359,138.571564 55.583359,151.798462 
	C42.718792,151.798462 29.678061,151.798462 15.995646,151.798462 
	C15.995646,148.331863 15.995646,144.903091 15.991875,140.977158 
z"/>
<path fill="#090909" opacity="1.000000" stroke="none" 
	d="
M65.314453,23.025066 
	C77.256508,23.022707 88.726501,23.022707 100.603508,23.022707 
	C100.603508,36.095467 100.603508,48.794235 100.603508,62.113033 
	C98.867561,62.218346 97.292175,62.400223 95.717361,62.395435 
	C85.560120,62.364567 75.401665,62.181019 65.246651,62.302231 
	C62.166313,62.338997 61.168537,61.359146 61.215523,58.319748 
	C61.380230,47.665623 61.410263,37.007664 61.321205,26.352585 
	C61.298656,23.654411 62.337452,22.728466 65.314453,23.025066 
z"/>
<path fill="#060606" opacity="1.000000" stroke="none" 
	d="
M61.773495,177.999420 
	C61.772915,171.532745 61.772915,165.566025 61.772915,159.246490 
	C74.866859,159.246490 87.579048,159.246490 100.780319,159.246490 
	C100.780319,172.170258 100.780319,185.179062 100.780319,198.516174 
	C87.805580,198.516174 75.117760,198.516174 61.774075,198.516174 
	C61.774075,191.694870 61.774075,185.097107 61.773495,177.999420 
z"/>
<path fill="#070707" opacity="1.000000" stroke="none" 
	d="
M19.102503,204.768921 
	C31.547655,204.763474 43.501640,204.763474 55.972782,204.763474 
	C55.972782,217.354553 56.032425,229.613785 55.852882,241.869522 
	C55.839378,242.791275 54.131615,244.464539 53.191807,244.478638 
	C41.253342,244.657562 29.311287,244.596420 16.676886,244.596420 
	C16.676886,240.472153 16.652847,236.542511 16.681929,232.613281 
	C16.741051,224.624969 16.754063,216.634750 16.979650,208.650803 
	C17.016565,207.344345 18.042507,206.065811 19.102503,204.768921 
z"/>
<path fill="#060606" opacity="1.000000" stroke="none" 
	d="
M202.869659,244.880173 
	C193.432083,244.885422 184.477051,244.885422 175.184113,244.885422 
	C175.184113,231.694962 175.184113,218.646896 175.184113,205.299103 
	C187.956863,205.299103 200.669159,205.299103 213.967911,205.299103 
	C213.967911,217.567474 214.017395,229.811996 213.853821,242.053680 
	C213.843216,242.848648 212.283630,244.133408 211.291092,244.305634 
	C208.690186,244.756927 206.004272,244.718292 202.869659,244.880173 
z"/>
<path fill="#060606" opacity="1.000000" stroke="none" 
	d="
M210.760071,23.117708 
	C214.633957,22.625280 213.983414,25.084019 213.987045,26.971624 
	C214.009338,38.566929 213.998215,50.162300 213.998215,62.077538 
	C200.007095,62.077538 187.278976,62.077538 174.189026,62.077538 
	C174.189026,49.225071 174.189026,36.355686 174.189026,23.137369 
	C186.410629,23.137369 198.346252,23.137369 210.760071,23.117708 
z"/>
<path fill="#0B0B0B" opacity="1.000000" stroke="none" 
	d="
M251.761810,23.304508 
	C253.687027,23.289034 255.140656,23.289034 257.276978,23.289034 
	C257.276978,36.512310 257.276978,49.234184 257.276978,62.383163 
	C244.897171,62.383163 232.177597,62.383163 219.598419,62.383163 
	C219.598419,49.128613 219.598419,36.304985 219.598419,23.319983 
	C230.717972,23.319983 241.004105,23.319983 251.761810,23.304508 
z"/>
<path fill="#060706" opacity="1.000000" stroke="none" 
	d="
M241.434464,244.463654 
	C234.221619,244.449707 227.434631,244.449707 220.241486,244.449707 
	C220.241486,231.357376 220.241486,218.505890 220.241486,205.277740 
	C233.069595,205.277740 245.762482,205.277740 258.800262,205.277740 
	C258.800262,218.043137 258.800262,230.895279 258.800262,244.477600 
	C253.031570,244.477600 247.445938,244.477600 241.434464,244.463654 
z"/>
<path fill="#080808" opacity="1.000000" stroke="none" 
	d="
M174.107437,69.434456 
	C181.764938,68.923225 189.220520,68.809471 196.676544,68.749504 
	C201.805252,68.708252 206.934555,68.741592 212.575729,68.741592 
	C212.575729,81.427040 212.575729,94.166183 212.575729,107.369446 
	C200.009094,107.369446 187.279190,107.369446 173.905716,107.369446 
	C173.905716,94.751694 173.905716,82.303284 174.107437,69.434456 
z"/>
<path fill="#070707" opacity="1.000000" stroke="none" 
	d="
M175.085831,275.992188 
	C175.086578,267.397156 175.086578,259.300293 175.086578,250.705139 
	C187.708252,250.705139 199.944992,250.705139 213.093765,250.705139 
	C213.093765,263.474304 213.093765,276.576538 213.093765,290.169800 
	C209.091614,290.169800 204.508270,290.153809 199.925095,290.173553 
	C193.111588,290.202881 186.281357,289.986450 179.491425,290.408539 
	C175.739532,290.641724 174.848984,289.308319 175.062607,285.961487 
	C175.263336,282.816772 175.092453,279.648346 175.085831,275.992188 
z"/>
<path fill="#050505" opacity="1.000000" stroke="none" 
	d="
M20.078445,290.518829 
	C18.724434,289.788147 17.124363,289.072845 17.115412,288.338104 
	C16.962006,275.747192 17.005211,263.153900 17.005211,250.705872 
	C30.149855,250.705872 42.850601,250.705872 55.792961,250.705872 
	C55.792961,263.975403 55.792961,276.702026 55.792961,290.525146 
	C43.997131,290.525146 32.284988,290.525146 20.078445,290.518829 
z"/>
<path fill="#060606" opacity="1.000000" stroke="none" 
	d="
M246.985413,152.346161 
	C238.681732,152.420319 230.873184,152.626587 223.074814,152.429810 
	C221.702042,152.395172 219.218719,150.699524 219.197144,149.727692 
	C218.929138,137.652084 219.021942,125.568459 219.021942,113.123573 
	C232.183792,113.123573 244.900650,113.123573 258.006317,113.123573 
	C258.006317,125.854027 258.006317,138.705902 258.006317,152.341171 
	C254.271439,152.341171 250.877731,152.341171 246.985413,152.346161 
z"/>
<path fill="#080808" opacity="1.000000" stroke="none" 
	d="
M219.641052,171.761719 
	C219.644775,167.503448 219.644775,163.719452 219.644775,159.676010 
	C232.682922,159.676010 245.095932,159.676010 258.044220,159.676010 
	C258.044220,172.766968 258.044220,185.607849 258.044220,198.736420 
	C245.168198,198.736420 232.465134,198.736420 219.637329,198.736420 
	C219.637329,189.733749 219.637329,180.984863 219.641052,171.761719 
z"/>
<path fill="#050505" opacity="1.000000" stroke="none" 
	d="
M258.472656,264.793518 
	C258.480652,273.357025 258.480652,281.448242 258.480652,289.900848 
	C245.167557,289.900848 232.812775,289.900848 220.041351,289.900848 
	C220.041351,276.702637 220.041351,263.659210 220.041351,250.274902 
	C232.630173,250.274902 245.157883,250.274902 258.464661,250.274902 
	C258.464661,254.868164 258.464661,259.594696 258.472656,264.793518 
z"/>
<path fill="#050505" opacity="1.000000" stroke="none" 
	d="
M258.262787,81.006897 
	C258.262390,89.803764 258.262390,98.101105 258.262390,106.872559 
	C245.235657,106.872559 232.557037,106.872559 219.414948,106.872559 
	C219.414948,94.081589 219.414948,81.246658 219.414948,68.020950 
	C232.200836,68.020950 244.893555,68.020950 258.263184,68.020950 
	C258.263184,72.303894 258.263184,76.405640 258.262787,81.006897 
z"/>
<path fill="#040404" opacity="1.000000" stroke="none" 
	d="
M71.032394,67.893112 
	C81.152962,67.892647 90.776695,67.892647 100.808151,67.892647 
	C100.808151,80.880379 100.808151,93.741806 100.808151,106.952774 
	C88.061569,106.952774 75.357185,106.952774 62.207756,106.952774 
	C62.207756,94.180389 62.207756,81.324722 62.207756,67.893578 
	C65.008102,67.893578 67.771835,67.893578 71.032394,67.893112 
z"/>
<path fill="#040504" opacity="1.000000" stroke="none" 
	d="
M55.592384,68.408707 
	C55.927670,81.346359 55.927670,93.936600 55.927670,106.924454 
	C42.902992,106.924454 30.211809,106.924454 17.078758,106.924454 
	C17.078758,94.107239 17.078758,81.250526 17.078758,68.061295 
	C29.809029,68.061295 42.533066,68.061295 55.592384,68.408707 
z"/>
<path fill="#070706" opacity="1.000000" stroke="none" 
	d="
M69.059906,290.053894 
	C66.584938,290.052246 64.603134,290.052246 61.725185,290.052246 
	C61.725185,283.515900 61.725185,277.116302 61.725185,270.716705 
	C61.725185,264.266388 61.725185,257.816040 61.725185,250.840576 
	C74.958344,250.840576 87.638474,250.840576 100.345459,250.840576 
	C100.345459,263.752014 100.345459,276.776276 100.345459,290.055511 
	C89.775383,290.055511 79.664223,290.055511 69.059906,290.053894 
z"/>
<path fill="#070707" opacity="1.000000" stroke="none" 
	d="
M55.230190,33.173546 
	C55.230511,42.950218 55.230511,52.251602 55.230511,62.294434 
	C46.035980,62.294434 37.121334,62.345020 28.207499,62.281879 
	C16.545012,62.199272 16.584949,62.160889 16.666018,50.695164 
	C16.729433,41.726608 16.678728,32.757240 16.678728,23.037073 
	C20.586203,23.037073 24.997747,23.021738 29.409147,23.040590 
	C36.397488,23.070454 43.393234,23.333731 50.371109,23.084925 
	C54.364902,22.942518 56.458073,23.666128 55.277023,28.220951 
	C54.913433,29.623184 55.226589,31.200895 55.230190,33.173546 
z"/>
<path fill="#050505" opacity="1.000000" stroke="none" 
	d="
M212.984070,139.002869 
	C212.987122,143.451523 212.987122,147.404968 212.987122,151.695740 
	C199.918900,151.695740 187.214172,151.695740 174.057922,151.695740 
	C174.057922,139.071121 174.057922,126.367203 174.057922,113.323158 
	C186.810852,113.323158 199.342560,113.323158 212.981003,113.323158 
	C212.981003,121.689552 212.981003,130.098602 212.984070,139.002869 
z"/>
<path fill="#050505" opacity="1.000000" stroke="none" 
	d="
M100.982574,143.907333 
	C100.982147,146.688370 100.982147,148.981506 100.982147,151.993729 
	C96.670387,151.993729 92.754318,151.994156 88.838257,151.993622 
	C81.027122,151.992569 73.212296,152.110184 65.408638,151.867966 
	C64.160713,151.829239 61.918823,150.198746 61.900116,149.268646 
	C61.660385,137.347473 61.741837,125.419838 61.741837,113.145645 
	C74.772057,113.145645 87.292435,113.145645 100.982994,113.145645 
	C100.982994,123.266907 100.982994,133.343155 100.982574,143.907333 
z"/>
</svg>